<svg xmlns:inkscape="http://www.inkscape.org/namespaces/inkscape" xmlns:sodipodi="http://sodipodi.sourceforge.net/DTD/sodipodi-0.dtd" xmlns="http://www.w3.org/2000/svg" xmlns:svg="http://www.w3.org/2000/svg" version="1.1" id="svg36" sodipodi:docname="лого.cdr" viewBox="67.43 331.07 460.01 179.77">
  <defs id="defs36"/>
  <sodipodi:namedview id="namedview36" pagecolor="#ffffff" bordercolor="#000000" borderopacity="0.25" inkscape:showpageshadow="2" inkscape:pageopacity="0.0" inkscape:pagecheckerboard="0" inkscape:deskcolor="#d1d1d1" inkscape:document-units="pt"/>
  <path d="m 67.4328,509.864 v -15.5355 c 0,-0.4071 0.0751,-0.7523 0.2257,-1.0358 0.1505,-0.2832 0.3407,-0.5221 0.5709,-0.7169 0.2301,-0.1947 0.4824,-0.3365 0.7568,-0.4249 0.2744,-0.0884 0.5267,-0.1329 0.7569,-0.1329 h 6.533 c 0.9028,0 1.7526,0.0841 2.5492,0.2525 0.7968,0.1681 1.4961,0.4558 2.0982,0.8629 0.6018,0.4073 1.0797,0.9516 1.434,1.6333 0.3541,0.6815 0.5309,1.527 0.5309,2.5362 0,0.7611 -0.1902,1.4516 -0.5709,2.0712 -0.3806,0.6197 -0.9073,1.1155 -1.58,1.4874 0.7965,0.3186 1.4207,0.8628 1.8723,1.633 0.4513,0.7702 0.6772,1.5713 0.6772,2.4035 0,1.0267 -0.1817,1.8944 -0.5445,2.6025 -0.3629,0.7081 -0.8544,1.2881 -1.4741,1.7393 -0.6196,0.4516 -1.341,0.779 -2.1642,0.9828 -0.8232,0.2035 -1.6951,0.3053 -2.6158,0.3053 h -8.3917 c -0.1772,0 -0.3319,-0.0663 -0.4649,-0.1993 -0.1327,-0.1326 -0.199,-0.2877 -0.199,-0.4646 z m 8.2854,-10.5162 c 0.6021,0 1.0888,-0.1639 1.4607,-0.4915 0.3719,-0.3274 0.5576,-0.8011 0.5576,-1.4208 0,-0.6196 -0.1902,-1.0842 -0.5709,-1.3941 -0.3807,-0.3098 -0.8632,-0.4648 -1.4474,-0.4648 h -4.7801 c 0.4074,0 0.7524,0.1462 1.0358,0.4382 0.2832,0.2923 0.4249,0.6151 0.4249,0.9695 v 1.5933 c 0,0.1593 0.0709,0.3274 0.2123,0.5046 0.1418,0.1769 0.3365,0.2656 0.5843,0.2656 z m 0.239,7.5948 c 0.6375,0 1.1554,-0.1768 1.5536,-0.5309 0.3983,-0.354 0.5976,-0.8586 0.5976,-1.5137 0,-0.6375 -0.2035,-1.1463 -0.6109,-1.527 -0.407,-0.3807 -0.9207,-0.5709 -1.5403,-0.5709 h -5.0191 c 0.4074,0 0.7524,0.146 1.0358,0.4379 0.2832,0.2923 0.4249,0.6154 0.4249,0.9695 v 1.9386 c 0,0.1769 0.0664,0.3541 0.199,0.5312 0.133,0.1769 0.332,0.2653 0.5976,0.2653 z M 86.1018,503.57 v -9.1885 c 0,-0.3716 0.0751,-0.6993 0.2256,-0.9825 0.1506,-0.2832 0.3365,-0.5221 0.5579,-0.7169 0.2211,-0.1947 0.4691,-0.341 0.7435,-0.4382 0.2744,-0.0975 0.5355,-0.146 0.7832,-0.146 h 1.9919 c 0.1948,0 0.3586,0.0618 0.4913,0.1857 0.1326,0.1241 0.1993,0.2834 0.1993,0.4782 v 10.7552 c 0,1.0091 0.2344,1.8059 0.7035,2.3901 0.4691,0.5843 1.2351,0.8762 2.2972,0.8762 1.0622,0 1.8281,-0.2919 2.2972,-0.8762 0.4691,-0.5842 0.7036,-1.381 0.7036,-2.3901 v -9.1619 c 0,-0.3719 0.0754,-0.6993 0.2259,-0.9828 0.1505,-0.2831 0.3407,-0.5221 0.5709,-0.7168 0.2302,-0.1948 0.4779,-0.3365 0.7435,-0.4249 0.2656,-0.0885 0.5224,-0.1327 0.7702,-0.1327 h 1.9916 c 0.1948,0 0.3586,0.0618 0.4915,0.1857 0.1327,0.1241 0.199,0.2834 0.199,0.4782 V 503.57 c 0,1.2571 -0.1902,2.3414 -0.5709,3.2533 -0.3807,0.9116 -0.9161,1.6642 -1.6066,2.2572 -0.6906,0.593 -1.5271,1.0358 -2.5096,1.3278 -0.9827,0.2922 -2.0758,0.4382 -3.2796,0.4382 -1.1863,0 -2.2751,-0.1414 -3.2667,-0.4249 -0.9913,-0.2832 -1.8366,-0.7214 -2.5359,-1.3144 -0.6996,-0.5933 -1.2438,-1.3502 -1.6333,-2.2706 -0.3895,-0.9207 -0.5842,-2.0095 -0.5842,-3.2666 z m 34.5234,1.4077 c 0,1.08 -0.2523,1.9916 -0.7568,2.7351 -0.5046,0.7438 -1.1464,1.3456 -1.9256,1.806 -0.779,0.4603 -1.6464,0.7923 -2.6025,0.9958 -0.9558,0.2035 -1.8853,0.3053 -2.7884,0.3053 -0.8674,0 -1.766,-0.0885 -2.6955,-0.2653 -0.9295,-0.1772 -1.7835,-0.4737 -2.5625,-0.8898 -0.779,-0.4162 -1.4298,-0.965 -1.9519,-1.6464 -0.5225,-0.6817 -0.8099,-1.527 -0.8632,-2.5362 0,-0.1593 0.0575,-0.2922 0.1726,-0.3982 0.1151,-0.1063 0.2523,-0.1596 0.4116,-0.1596 h 3.532 c 0.1063,0 0.1993,0.009 0.2789,0.0266 0.0797,0.0179 0.1551,0.0442 0.2257,0.0797 0.1241,0.0708 0.2744,0.1947 0.4515,0.3719 0.2832,0.5663 0.7039,0.9516 1.2614,1.1551 0.5576,0.2035 1.1376,0.3053 1.7394,0.3053 0.2656,0 0.5712,-0.0176 0.9164,-0.053 0.345,-0.0354 0.6639,-0.1106 0.9559,-0.2257 0.2922,-0.115 0.5445,-0.2834 0.7568,-0.5045 0.2126,-0.2214 0.3186,-0.5091 0.3186,-0.8632 0,-0.4779 -0.1769,-0.8232 -0.5309,-1.0357 -0.3541,-0.2124 -0.726,-0.3807 -1.1154,-0.5046 -0.3011,-0.1063 -0.6597,-0.2081 -1.0755,-0.3053 -0.4161,-0.0975 -0.8986,-0.1993 -1.4474,-0.3056 -0.8144,-0.1593 -1.6021,-0.3674 -2.3635,-0.6239 -0.7614,-0.2568 -1.4386,-0.5975 -2.0316,-1.0224 -0.593,-0.425 -1.0712,-0.9604 -1.434,-1.6067 -0.3629,-0.6463 -0.5443,-1.4386 -0.5443,-2.3769 0,-1.1684 0.3229,-2.173 0.9692,-3.0141 0.6463,-0.841 1.4916,-1.4828 2.5361,-1.9252 1.133,-0.4604 2.4344,-0.6906 3.9039,-0.6906 0.5842,0 1.1906,0.0488 1.819,0.146 0.6284,0.0975 1.2393,0.2568 1.8323,0.4782 0.5933,0.2211 1.1463,0.5134 1.66,0.8762 0.5133,0.3631 0.9558,0.8011 1.3277,1.3147 0.6018,0.779 0.9295,1.5667 0.9825,2.3636 0,0.1414 -0.0575,0.2743 -0.1726,0.3982 -0.1151,0.1239 -0.2435,0.186 -0.385,0.186 h -3.7179 c -0.3719,0 -0.6639,-0.1593 -0.8765,-0.4782 -0.106,-0.3717 -0.3804,-0.6903 -0.8231,-0.9559 -0.478,-0.248 -1.0267,-0.3719 -1.6464,-0.3719 -0.2656,0 -0.5357,0.0179 -0.8101,0.053 -0.2744,0.0355 -0.5267,0.1151 -0.7569,0.2393 -0.2302,0.1238 -0.4161,0.2877 -0.5576,0.4912 -0.1417,0.2035 -0.2126,0.4646 -0.2126,0.7832 0,0.4958 0.2656,0.8944 0.7969,1.1951 0.5312,0.2835 1.5224,0.5754 2.9744,0.8765 0.8319,0.1593 1.6596,0.3495 2.4828,0.5709 0.8232,0.2214 1.5537,0.5354 2.1909,0.9428 0.6375,0.407 1.1551,0.934 1.5537,1.58 0.3983,0.6463 0.5975,1.474 0.5975,2.4832 z m 22.015,-12.9597 c 0.1948,0 0.3586,0.0666 0.4915,0.1992 0.1327,0.133 0.199,0.2877 0.199,0.4649 v 2.9741 c 0,0.1948 -0.0663,0.3541 -0.199,0.4782 -0.1329,0.1239 -0.2967,0.1857 -0.4915,0.1857 h -6.1608 c 0.3895,0 0.739,0.1417 1.0488,0.4249 0.3098,0.2835 0.4649,0.6021 0.4649,0.9561 v 12.1629 c 0,0.1948 -0.0709,0.3453 -0.2126,0.4513 -0.1239,0.1242 -0.2832,0.186 -0.4779,0.186 h -3.6913 c -0.1947,0 -0.3543,-0.0618 -0.4782,-0.186 -0.1414,-0.106 -0.2123,-0.2565 -0.2123,-0.4513 v -12.7471 c 0,-0.2477 -0.0797,-0.4425 -0.239,-0.5842 -0.1596,-0.1417 -0.3452,-0.2126 -0.5578,-0.2126 h -3.8506 c -0.1772,0 -0.3365,-0.0618 -0.4779,-0.1857 -0.1418,-0.1241 -0.2126,-0.2834 -0.2126,-0.4782 v -1.3544 c 0,-0.3362 0.0663,-0.646 0.1992,-0.9295 0.1327,-0.2831 0.3099,-0.5266 0.531,-0.7302 0.2214,-0.2035 0.4694,-0.3585 0.7438,-0.4646 0.2744,-0.1063 0.553,-0.1595 0.8365,-0.1595 z m 18.2974,18.5366 h -3.7443 c -0.4958,0 -0.8498,-0.2302 -1.0624,-0.6906 l -2.7085,-5.3112 c -0.1596,-0.2832 -0.3986,-0.425 -0.7172,-0.425 h -3.479 c 0.4428,0 0.7923,0.1548 1.0491,0.4646 0.2569,0.3099 0.385,0.6242 0.385,0.9428 v 4.3818 c 0,0.1948 -0.0618,0.3453 -0.1857,0.4516 -0.1241,0.1239 -0.2835,0.186 -0.4782,0.186 h -3.6383 c -0.1768,0 -0.3319,-0.0667 -0.4646,-0.1993 -0.1329,-0.1327 -0.1992,-0.279 -0.1992,-0.4383 v -15.5619 c 0,-0.6551 0.2301,-1.1996 0.6905,-1.6333 0.4603,-0.4337 1.0003,-0.6506 1.62,-0.6506 h 5.6299 c 0.9915,0 1.9341,0.1063 2.8284,0.3187 0.894,0.2126 1.6818,0.5575 2.3635,1.0357 0.6815,0.478 1.226,1.1021 1.6331,1.8723 0.4073,0.7699 0.6108,1.7127 0.6108,2.8281 0,1.0622 -0.2389,2.0183 -0.7171,2.8681 -0.478,0.8499 -1.1861,1.5404 -2.1243,2.0713 -0.1418,0.0887 -0.2172,0.1948 -0.226,0.3189 -0.009,0.1239 0.0134,0.2211 0.0664,0.292 l 3.3463,6.0548 c 0.053,0.1063 0.0796,0.2038 0.0796,0.2922 0,0.1418 -0.0575,0.2656 -0.1726,0.3719 -0.1151,0.1061 -0.2435,0.1594 -0.3852,0.1594 z m -4.9924,-12.4552 c 0,-0.7257 -0.2169,-1.279 -0.6508,-1.6597 -0.4337,-0.3807 -0.9958,-0.5709 -1.6864,-0.5709 h -4.5674 c 0.4425,0 0.7965,0.1505 1.0621,0.4513 0.2656,0.301 0.3983,0.6196 0.3983,0.9561 v 2.1512 c 0,0.2123 0.0754,0.3983 0.2259,0.5576 0.1502,0.1593 0.3407,0.239 0.5709,0.239 h 2.3102 c 0.6906,0 1.2527,-0.1727 1.6864,-0.5179 0.4339,-0.3453 0.6508,-0.8807 0.6508,-1.6067 z m 6.7453,12.3489 c -0.1063,-0.1418 -0.1596,-0.2744 -0.1596,-0.3983 0,-0.1242 0.009,-0.2038 0.0267,-0.2393 l 6.1611,-16.9429 c 0.1947,-0.5134 0.5488,-0.7699 1.0621,-0.7699 h 4.1165 c 0.5133,0 0.8674,0.2565 1.0621,0.7699 l 6.1611,16.9429 c 0.0176,0.0355 0.0267,0.1151 0.0267,0.2393 0,0.1414 -0.0576,0.2698 -0.1726,0.3849 -0.1151,0.1151 -0.2435,0.1727 -0.3853,0.1727 h -3.4256 c -0.4425,0 -0.7436,-0.1948 -0.9029,-0.5843 l -1.381,-3.7445 c -0.6372,0.248 -1.2835,0.4515 -1.9386,0.6108 -0.6551,0.1593 -1.2881,0.279 -1.8987,0.3586 -0.6108,0.0797 -1.1817,0.1327 -1.713,0.1593 -0.5312,0.0267 -0.9915,0.0397 -1.381,0.0397 -0.2477,0 -0.4558,0 -0.6239,0 -0.1684,0 -0.2968,-0.009 -0.3852,-0.0263 0.3186,0.053 0.5799,0.2301 0.7835,0.5309 0.2035,0.301 0.2256,0.6551 0.0663,1.0624 l -0.3716,1.0091 c -0.1596,0.3895 -0.4604,0.5843 -0.9031,0.5843 h -3.4257 c -0.1239,0 -0.2568,-0.053 -0.3983,-0.1593 z m 6.7453,-6.7984 c 0.4955,-0.0354 1.0092,-0.0975 1.5401,-0.1859 0.4604,-0.0709 0.9428,-0.1727 1.4474,-0.3056 0.5045,-0.1327 0.987,-0.3229 1.4473,-0.5709 l -2.0449,-5.8425 z m 13.8357,6.2141 v -15.5355 c 0,-0.6197 0.2214,-1.1597 0.6638,-1.62 0.4428,-0.4604 0.9916,-0.6905 1.6467,-0.6905 h 0.8762 c 0.1947,0 0.4249,0.0399 0.6905,0.1196 0.2656,0.0796 0.54,0.3143 0.8235,0.7038 1.0442,1.6288 1.9828,3.0983 2.8148,4.4082 0.5133,0.7968 0.9161,1.4298 1.2084,1.8989 0.2919,0.4691 0.5709,0.9028 0.8365,1.3011 0.2656,0.3986 0.4867,0.7393 0.6638,1.0225 0.1772,0.2834 0.2832,0.4515 0.3187,0.5045 0,0.0355 0.0354,0.0533 0.1063,0.0533 0.0884,0 0.1326,-0.0442 0.1326,-0.1329 v -7.5685 c 0,-0.6905 0.2393,-1.2481 0.7172,-1.673 0.4779,-0.4249 1.0179,-0.6375 1.62,-0.6375 h 1.6994 c 0.195,0 0.3543,0.062 0.4782,0.1859 0.1238,0.1593 0.1859,0.3277 0.1859,0.5046 v 17.1289 c 0,0.1593 -0.0621,0.3186 -0.1859,0.4779 -0.1418,0.1417 -0.3011,0.2126 -0.4782,0.2126 h -3.0008 c -0.3895,0 -0.6905,-0.1681 -0.9028,-0.5046 -1.0625,-1.6287 -2.0183,-3.0894 -2.8681,-4.3818 -0.5134,-0.7789 -0.9207,-1.4031 -1.2218,-1.8722 -0.3007,-0.4692 -0.5842,-0.9029 -0.8498,-1.3011 -0.2653,-0.3986 -0.4867,-0.7348 -0.6639,-1.0092 -0.1768,-0.2747 -0.2831,-0.4382 -0.3186,-0.4915 -0.053,-0.053 -0.0972,-0.0797 -0.1326,-0.0797 -0.0888,0 -0.133,0.0443 -0.133,0.133 v 8.8432 c 0,0.1948 -0.0708,0.3541 -0.2123,0.478 -0.1417,0.1238 -0.301,0.1859 -0.4782,0.1859 h -3.3727 c -0.1593,0 -0.3098,-0.0709 -0.4512,-0.2126 -0.1418,-0.1414 -0.2126,-0.292 -0.2126,-0.4513 z m 34.2048,-4.8863 c 0,1.08 -0.2523,1.9916 -0.7569,2.7351 -0.5045,0.7438 -1.1463,1.3456 -1.9255,1.806 -0.779,0.4603 -1.6464,0.7923 -2.6025,0.9958 -0.9559,0.2035 -1.8854,0.3053 -2.7885,0.3053 -0.8674,0 -1.766,-0.0885 -2.6954,-0.2653 -0.9295,-0.1772 -1.7836,-0.4737 -2.5626,-0.8898 -0.7789,-0.4162 -1.4298,-0.965 -1.9519,-1.6464 -0.5224,-0.6817 -0.8099,-1.527 -0.8631,-2.5362 0,-0.1593 0.0575,-0.2922 0.1726,-0.3982 0.1151,-0.1063 0.2523,-0.1596 0.4116,-0.1596 h 3.5319 c 0.1063,0 0.1993,0.009 0.279,0.0266 0.0796,0.0179 0.155,0.0442 0.2256,0.0797 0.1242,0.0708 0.2744,0.1947 0.4516,0.3719 0.2832,0.5663 0.7038,0.9516 1.2614,1.1551 0.5576,0.2035 1.1375,0.3053 1.7393,0.3053 0.2656,0 0.5712,-0.0176 0.9165,-0.053 0.3449,-0.0354 0.6638,-0.1106 0.9558,-0.2257 0.2923,-0.115 0.5445,-0.2834 0.7569,-0.5045 0.2126,-0.2214 0.3186,-0.5091 0.3186,-0.8632 0,-0.4779 -0.1769,-0.8232 -0.531,-1.0357 -0.354,-0.2124 -0.7259,-0.3807 -1.1154,-0.5046 -0.301,-0.1063 -0.6596,-0.2081 -1.0754,-0.3053 -0.4162,-0.0975 -0.8986,-0.1993 -1.4474,-0.3056 -0.8144,-0.1593 -1.6022,-0.3674 -2.3635,-0.6239 -0.7614,-0.2568 -1.4386,-0.5975 -2.0316,-1.0224 -0.593,-0.425 -1.0713,-0.9604 -1.4341,-1.6067 -0.3628,-0.6463 -0.5442,-1.4386 -0.5442,-2.3769 0,-1.1684 0.3228,-2.173 0.9691,-3.0141 0.6463,-0.841 1.4916,-1.4828 2.5362,-1.9252 1.133,-0.4604 2.4344,-0.6906 3.9039,-0.6906 0.5842,0 1.1905,0.0488 1.819,0.146 0.6284,0.0975 1.2393,0.2568 1.8323,0.4782 0.5933,0.2211 1.1463,0.5134 1.6599,0.8762 0.5134,0.3631 0.9559,0.8011 1.3278,1.3147 0.6018,0.779 0.9295,1.5667 0.9825,2.3636 0,0.1414 -0.0576,0.2743 -0.1727,0.3982 -0.115,0.1239 -0.2435,0.186 -0.3849,0.186 h -3.7179 c -0.3719,0 -0.6639,-0.1593 -0.8765,-0.4782 -0.106,-0.3717 -0.3804,-0.6903 -0.8232,-0.9559 -0.4779,-0.248 -1.0267,-0.3719 -1.6463,-0.3719 -0.2656,0 -0.5358,0.0179 -0.8102,0.053 -0.2744,0.0355 -0.5267,0.1151 -0.7568,0.2393 -0.2302,0.1238 -0.4162,0.2877 -0.5576,0.4912 -0.1417,0.2035 -0.2126,0.4646 -0.2126,0.7832 0,0.4958 0.2656,0.8944 0.7968,1.1951 0.5312,0.2835 1.5225,0.5754 2.9744,0.8765 0.832,0.1593 1.6597,0.3495 2.4829,0.5709 0.8232,0.2214 1.5536,0.5354 2.1909,0.9428 0.6375,0.407 1.1551,0.934 1.5536,1.58 0.3983,0.6463 0.5976,1.474 0.5976,2.4832 z m 2.6555,4.8863 v -15.5355 c 0,-0.3365 0.0663,-0.6463 0.1993,-0.9295 0.1326,-0.2832 0.3052,-0.5267 0.5176,-0.7302 0.2126,-0.2035 0.4603,-0.3631 0.7438,-0.4782 0.2832,-0.1151 0.5663,-0.1726 0.8498,-0.1726 h 10.6489 c 0.1772,0 0.3365,0.0708 0.4782,0.2126 0.1415,0.1417 0.2123,0.301 0.2123,0.4779 v 2.8151 c 0,0.1947 -0.0708,0.3452 -0.2123,0.4515 -0.1241,0.1239 -0.2834,0.1857 -0.4782,0.1857 h -9.5601 c 0.3895,0 0.7302,0.1417 1.0224,0.4249 0.292,0.2835 0.438,0.6197 0.438,1.0091 v 2.2575 h 6.3737 c 0.4603,0 0.6905,0.2302 0.6905,0.6903 v 2.7884 c 0,0.2126 -0.0621,0.3765 -0.1859,0.4913 -0.1239,0.1151 -0.2923,0.1726 -0.5046,0.1726 h -7.8341 c 0.354,0 0.686,0.1329 0.9958,0.3985 0.3098,0.2657 0.4646,0.6018 0.4646,1.0092 v 4.4614 c 0,0.1948 -0.0618,0.3541 -0.1857,0.478 -0.1063,0.1238 -0.2656,0.1859 -0.4782,0.1859 h -3.5319 c -0.1948,0 -0.3541,-0.0621 -0.478,-0.1859 -0.1238,-0.1239 -0.1859,-0.2832 -0.1859,-0.478 z m 16.4647,0.0267 v -15.5356 c 0,-0.6729 0.2302,-1.226 0.6906,-1.66 0.4603,-0.4337 1.0003,-0.6505 1.62,-0.6505 h 10.8348 c 0.1948,0 0.3586,0.0663 0.4915,0.1993 0.1327,0.1326 0.199,0.2965 0.199,0.4912 v 2.6292 c 0,0.1947 -0.0618,0.3452 -0.1859,0.4512 -0.1239,0.1242 -0.292,0.186 -0.5046,0.186 h -9.7991 c 0.4249,0 0.7745,0.1505 1.0489,0.4515 0.2743,0.3011 0.4115,0.6285 0.4115,0.9825 v 1.1155 c 0,0.1947 0.0664,0.3807 0.1993,0.5575 0.1327,0.1772 0.332,0.2656 0.5976,0.2656 h 5.7892 c 0.1947,0 0.3585,0.0664 0.4912,0.1993 0.1329,0.1327 0.1993,0.2965 0.1993,0.4913 v 2.3901 c 0,0.1948 -0.0664,0.3583 -0.1993,0.4913 -0.1327,0.1326 -0.2965,0.1993 -0.4912,0.1993 h -8.0465 c 0.4071,0 0.7523,0.1414 1.0355,0.4246 0.2835,0.2834 0.4249,0.6021 0.4249,0.9561 v 1.2481 c 0,0.1947 0.0709,0.3807 0.2126,0.5579 0.1415,0.1768 0.3362,0.2656 0.5843,0.2656 h 7.7544 c 0.4604,0 0.6905,0.2301 0.6905,0.6902 v 2.6028 c 0,0.2123 -0.0666,0.3761 -0.1992,0.4912 -0.1327,0.1151 -0.2965,0.1727 -0.4913,0.1727 h -12.6941 c -0.1769,0 -0.3319,-0.0667 -0.4646,-0.1993 -0.1329,-0.1327 -0.1993,-0.2877 -0.1993,-0.4646 z m 32.2926,0.6639 h -3.7443 c -0.4958,0 -0.8498,-0.2302 -1.0624,-0.6906 l -2.7085,-5.3112 c -0.1596,-0.2832 -0.3986,-0.425 -0.7172,-0.425 h -3.4789 c 0.4427,0 0.7922,0.1548 1.0491,0.4646 0.2568,0.3099 0.3849,0.6242 0.3849,0.9428 v 4.3818 c 0,0.1948 -0.0618,0.3453 -0.1857,0.4516 -0.1241,0.1239 -0.2834,0.186 -0.4782,0.186 h -3.6382 c -0.1769,0 -0.332,-0.0667 -0.4646,-0.1993 -0.133,-0.1327 -0.1993,-0.279 -0.1993,-0.4383 v -15.5619 c 0,-0.6551 0.2302,-1.1996 0.6905,-1.6333 0.4604,-0.4337 1.0004,-0.6506 1.62,-0.6506 h 5.6299 c 0.9916,0 1.9341,0.1063 2.8284,0.3187 0.8941,0.2126 1.6818,0.5575 2.3635,1.0357 0.6815,0.478 1.226,1.1021 1.6331,1.8723 0.4073,0.7699 0.6108,1.7127 0.6108,2.8281 0,1.0622 -0.2389,2.0183 -0.7171,2.8681 -0.4779,0.8499 -1.186,1.5404 -2.1243,2.0713 -0.1417,0.0887 -0.2171,0.1948 -0.2259,0.3189 -0.009,0.1239 0.0133,0.2211 0.0663,0.292 l 3.3463,6.0548 c 0.053,0.1063 0.0797,0.2038 0.0797,0.2922 0,0.1418 -0.0576,0.2656 -0.1727,0.3719 -0.1151,0.1061 -0.2435,0.1594 -0.3852,0.1594 z m -4.9924,-12.4552 c 0,-0.7257 -0.2168,-1.279 -0.6508,-1.6597 -0.4337,-0.3807 -0.9958,-0.5709 -1.6863,-0.5709 h -4.5675 c 0.4425,0 0.7965,0.1505 1.0621,0.4513 0.2656,0.301 0.3983,0.6196 0.3983,0.9561 v 2.1512 c 0,0.2123 0.0754,0.3983 0.2259,0.5576 0.1503,0.1593 0.3407,0.239 0.5709,0.239 h 2.3103 c 0.6905,0 1.2526,-0.1727 1.6863,-0.5179 0.434,-0.3453 0.6508,-0.8807 0.6508,-1.6067 z" style="fill:#1b1918;fill-rule:evenodd" id="path1"/>
  <path d="m 105.3928,343.9411 c 1.1921,0.8727 1.744,1.9225 3.1634,2.866 0.2509,-0.2193 0.4446,-0.4966 0.6155,-0.804 0.1199,-0.259 0.2456,-0.5146 0.3773,-0.7666 0.1556,-0.3356 0.3155,-0.6796 0.5136,-1.0046 1.2991,-2.1316 3.7575,-4.9057 6.2027,-6.0804 2.6358,-1.5607 5.7088,-2.4565 8.9905,-2.4565 3.3018,0 6.3919,0.9073 9.0387,2.4857 4.7534,1.8023 8.6153,8.8388 8.7716,15.1687 l -0.084,10e-4 6e-4,0.0349 h -3.3392 l 3.0917,3.0917 -0.002,0.009 2.6346,2.6439 5.7575,-5.6833 -3.4894,-0.1204 c -0.4935,-21.8082 -25.9648,-28.8008 -38.4206,-15.5271 -0.9242,0.9847 -3.5794,4.2432 -3.8229,6.1418 z m 8.5101,23.2252 c -0.4004,-0.3285 -0.7916,-0.6869 -1.1709,-1.0726 -3.2153,-3.2219 -5.2046,-7.6769 -5.2046,-12.5984 l 4e-4,-0.0341 -4e-4,-0.0189 h 7e-4 v -9e-4 h 0.0174 l 3.3601,-0.1506 -3.0765,-3.0765 0.009,-0.048 -2.574,-2.5687 c -0.837,0.4691 -1.0304,0.7092 -1.6201,1.3787 -0.9599,1.0894 -3.4454,3.295 -4.1327,4.3542 l 3.4704,0.0178 c 0.5029,11.4555 7.5221,19.254 16.8415,21.6267 5.757,1.4657 11.4812,0.4069 15.9766,-1.9338 3.296,-1.7162 8.3581,-6.1505 9.4455,-9.9394 -0.6521,-1.0707 -2.1269,-2.5924 -3.1918,-3.1396 -0.8719,1.035 -1.0147,2.4794 -3.1868,4.9768 -0.7916,0.9103 -1.8325,1.9974 -3.0485,2.8521 -2.9501,2.2014 -6.6047,3.5044 -10.5628,3.5044 -4.3195,0 -8.2774,-1.5517 -11.3529,-4.1292 z" style="fill:#8b8c8a;fill-rule:evenodd" id="path2"/>
  <path d="m 193.7034,363.9355 c 0.3229,0.1468 0.4187,0.3051 0.8595,0.2984 0.4697,-0.007 0.5844,-0.1943 0.8865,-0.3359 l 9.711,-9.6846 c 0.3209,-0.3159 1.2253,-1.1534 1.3698,-1.4012 -0.5809,0.0198 -6.1202,2.3207 -6.7718,2.4382 l -0.6236,-2.1198 c -1.5146,0.0443 -3.0985,-0.0106 -4.6206,-0.0176 -1.5262,-0.007 -3.0437,-0.0218 -4.5787,-0.0277 -1.4325,-0.006 -3.0383,-0.188 -3.9401,0.6708 -0.3553,0.3383 -0.8499,0.8872 -0.5909,1.6279 0.1301,0.3718 0.8887,1.1221 1.0847,1.2404 0.1055,-0.0532 0.0353,-0.003 0.151,-0.1057 0.037,-0.0327 0.0572,-0.0581 0.0976,-0.0995 0.6362,-0.652 1.2427,-1.0347 2.0236,-0.2557 0.7617,0.76 0.2713,1.4048 -0.3418,1.9867 -0.1189,0.113 -0.1155,0.0958 -0.175,0.2362 l 1.4889,1.5312 c 0.2375,0.2381 1.3202,1.3996 1.5446,1.481 0.5486,-0.7145 1.3624,-1.3248 2.2131,-0.4635 1.0603,1.0733 -0.3946,1.9128 -0.515,2.227 0.1677,0.2473 0.5668,0.5175 0.7272,0.7734 z" style="fill:#565757;fill-rule:evenodd" id="path3"/>
  <path d="m 202.6378,344.1621 c 0.1659,0.0783 1.2955,1.2718 1.4584,1.4417 0.2613,0.2727 1.3053,1.2659 1.4096,1.5081 -0.119,0.1968 -1.4223,1.4513 -1.5387,1.5146 -0.1685,-0.094 -2.7828,-2.768 -2.8822,-2.9598 z m -2.0186,1.0391 c -0.5602,-0.3111 -1.8699,-2.1365 -2.59,-2.3416 -0.5556,-0.1582 -0.9499,0.0467 -1.2719,0.3406 -0.5956,0.5435 -1.1226,1.1149 -1.6675,1.6316 l -3.3319,3.2657 c -0.7574,0.7379 -0.8852,1.5036 0.2118,2.0064 1.1423,0.5235 3.1927,0.3188 4.4987,0.431 0.4261,0.0366 1.2006,0.0772 1.6445,0.0305 0.0307,-0.6872 -0.4995,-1.6639 -0.5291,-2.3537 0.2249,0.0314 1.9993,0.9581 2.2723,1.0897 l 3.4155,1.6618 c 0.7447,0.3463 3.1198,1.6202 3.4967,1.614 0.244,-1.2288 -0.644,-1.6431 -1.6241,-2.7043 -0.1622,-0.1756 -0.6426,-0.597 -0.6931,-0.7916 l 1.4293,-1.4357 c 0.215,-0.1807 0.1907,-0.0685 0.4539,-0.0555 0.3559,0.0174 0.5817,-0.2287 0.7452,-0.4179 0.5526,-0.6394 -0.2707,-1.2605 -0.5245,-1.5154 l -2.3165,-2.3606 c -0.2957,-0.2946 -0.8397,-1.117 -1.5267,-0.6878 -0.2092,0.1306 -0.4413,0.3787 -0.4694,0.6674 -0.0462,0.4754 0.1776,0.2139 -0.3983,0.7783 -0.1556,0.1526 -1.0335,1.0636 -1.2249,1.1471 z" style="fill:#565757;fill-rule:evenodd" id="path4"/>
  <path d="m 199.9621,354.8564 c 0.3753,-0.0711 1.0876,-0.3811 1.4707,-0.5254 0.6711,-0.2527 4.0024,-1.4407 4.1602,-1.6063 l -6.2317,-0.1277 c 0.0291,0.409 0.4682,1.8558 0.6008,2.2594 z" style="fill:#565757;fill-rule:evenodd" id="path5"/>
  <path d="m 197.9871,352.2536 6.3631,0.0829 c -0.3164,-0.1699 -5.7314,-1.7586 -5.9805,-1.7664 -0.0803,0.3744 -0.3996,1.3905 -0.3826,1.6835 z" style="fill:#565757;fill-rule:evenodd" id="path6"/>
  <path d="m 204.7261,352.0573 c -0.1098,-0.1271 -0.225,-0.1677 -0.3884,-0.2446 L 203.08,351.2 c -0.87,-0.4218 -4.5371,-2.2564 -5.0781,-2.4587 0.005,0.2879 0.1543,0.7 0.2315,1.0051 0.142,0.5608 0.0541,0.4567 0.6114,0.6204 l 3.8738,1.1385 c 0.4726,0.1343 1.5922,0.5287 2.0075,0.552 z" style="fill:#565757;fill-rule:evenodd" id="path7"/>
  <path d="m 188.5353,357.5495 c 0.384,-0.6723 -0.3381,-1.5056 -1.0567,-1.2751 -0.2997,0.0961 -1.2236,1.0473 -1.3222,1.2349 -0.3579,0.681 0.3093,1.4678 1.0598,1.2619 0.2582,-0.0709 1.2416,-1.0861 1.3191,-1.2217 z" style="fill:#565757;fill-rule:evenodd" id="path8"/>
  <path d="m 193.2729,362.324 c 0.3768,-0.6473 -0.3416,-1.5475 -1.0878,-1.2832 -0.183,0.0648 -1.1664,1.0071 -1.284,1.2197 -0.3714,0.671 0.3148,1.5252 1.072,1.2664 0.2151,-0.0735 1.2289,-1.0811 1.2998,-1.2029 z" style="fill:#565757;fill-rule:evenodd" id="path9"/>
  <path d="m 176.3735,343.9411 c 1.1922,0.8727 1.7441,1.9225 3.1634,2.866 0.2509,-0.2193 0.4446,-0.4966 0.6156,-0.804 0.1198,-0.259 0.2456,-0.5146 0.3773,-0.7666 0.1555,-0.3356 0.3154,-0.6796 0.5135,-1.0046 1.2991,-2.1316 3.7575,-4.9057 6.2028,-6.0804 2.6358,-1.5607 5.7087,-2.4565 8.9904,-2.4565 3.3018,0 6.392,0.9073 9.0388,2.4857 4.7534,1.8023 8.6153,8.8388 8.7715,15.1687 l -0.0839,10e-4 6e-4,0.0349 h -3.3393 l 3.0917,3.0917 -0.002,0.009 2.6347,2.6439 5.7574,-5.6833 -3.4894,-0.1204 c -0.4934,-21.8082 -25.9647,-28.8008 -38.4206,-15.5271 -0.9241,0.9847 -3.5794,4.2432 -3.8229,6.1418 z" style="fill:#1b1918;fill-rule:evenodd" id="path10"/>
  <path d="m 258.4085,367.1663 c -0.4005,-0.3285 -0.7916,-0.6869 -1.1709,-1.0726 -3.2154,-3.2219 -5.2047,-7.6769 -5.2047,-12.5984 l 4e-4,-0.0341 -4e-4,-0.0189 h 7e-4 v -9e-4 h 0.0175 l 3.36,-0.1506 -3.0765,-3.0765 0.01,-0.048 -2.5741,-2.5687 c -0.8369,0.4691 -1.0303,0.7092 -1.6201,1.3787 -0.9599,1.0894 -3.4454,3.295 -4.1326,4.3542 l 3.4704,0.0178 c 0.5028,11.4555 7.5221,19.254 16.8414,21.6267 5.7571,1.4657 11.4813,0.4069 15.9766,-1.9338 3.296,-1.7162 8.3582,-6.1505 9.4456,-9.9394 -0.6522,-1.0707 -2.1269,-2.5924 -3.1919,-3.1396 -0.8718,1.035 -1.0146,2.4794 -3.1867,4.9768 -0.7916,0.9103 -1.8326,1.9974 -3.0486,2.8521 -2.95,2.2014 -6.6046,3.5044 -10.5628,3.5044 -4.3194,0 -8.2774,-1.5517 -11.3528,-4.1292 z" style="fill:#1b1918;fill-rule:evenodd" id="path11"/>
  <path d="m 257.6435,358.6005 c 1.3683,-0.0297 3.4956,-0.4303 5.2177,-0.523 0.1878,-0.0849 4.4618,-5.6381 4.7489,-6.3314 -1.2484,-2.6143 -7.8926,-5.3352 -9.067,-5.4344 -2.2245,2.854 -2.6856,8.8065 -0.8996,12.2888 z" style="fill:#565757;fill-rule:evenodd" id="path12"/>
  <path d="m 266.9369,366.2159 c 3.5029,1.5676 10.3171,-0.9461 11.8527,-3.135 0.0549,-0.242 -3.8633,-7.3059 -7.1696,-7.9403 -0.9436,1.3472 -2.5025,2.9791 -3.8161,4.4253 -1.0024,1.1038 -1.3078,0.9938 -1.1064,2.8553 0.1173,1.0834 0.1091,3.1765 0.2394,3.7947 z" style="fill:#565757;fill-rule:evenodd" id="path13"/>
  <path d="m 275.9649,352.8729 c 0.598,-0.261 0.3818,-0.3944 0.9429,-0.4091 0.3796,-0.01 0.7996,0.3286 0.9172,0.5357 0.4074,0.7165 -0.3699,1.1504 -0.7934,1.8052 l 0.8839,2.2022 c 1.0161,-0.482 1.2174,-0.6921 1.9977,0.3166 -0.1983,1.4477 -2.0223,0.8978 0.2201,4.283 2.2481,-1.2429 4.3586,-8.4154 1.7944,-14.0035 -0.5618,-1.2241 -1.7246,-3.2258 -2.7442,-3.6389 -0.9216,4.0683 -1.3289,4.1094 -3.4948,6.5892 -0.7888,0.9032 -0.0496,1.3576 0.2762,2.3196 z" style="fill:#565757;fill-rule:evenodd" id="path14"/>
  <path d="m 259.7992,344.7293 c 0.6448,0.4096 1.9211,0.6286 2.765,0.7368 1.6021,-2.3843 2.5867,-1.1002 2.0181,0.5931 l 2.4381,0.5489 c 0.7916,-1.5022 1.1304,-1.5993 2.314,-0.6374 l -0.3209,1.1096 1.8729,0.5158 c 1.595,-1.8084 1.8488,-2.9605 4.3341,-4.3562 0.5499,-0.3087 1.4542,-0.5649 1.9951,-1.0057 -2.9775,-2.7203 -9.875,-3.0309 -14.1896,-0.4177 -1.1931,0.7226 -2.8567,2.0123 -3.2268,2.9128 z" style="fill:#565757;fill-rule:evenodd" id="path15"/>
  <path d="m 261.7669,363.8005 c 0.5951,0.7515 2.4158,1.7404 3.3594,1.9108 l -1.8365,-3.0637 c -0.6355,0.1611 -1.1568,0.5712 -1.5229,1.1529 z" style="fill:#565757;fill-rule:evenodd" id="path16"/>
  <path d="m 261.062,363.2014 c 0.4122,-0.5005 0.6631,-0.929 0.8366,-1.6786 l -3.2728,-1.2731 c 0.1506,0.8994 1.7991,2.6703 2.4362,2.9517 z" style="fill:#565757;fill-rule:evenodd" id="path17"/>
  <path d="m 269.7613,335.695 c 3.3018,0 6.392,0.9073 9.0388,2.4857 4.7534,1.8023 8.6153,8.8388 8.7715,15.1687 l -0.0839,10e-4 6e-4,0.0349 h -3.3393 l 3.0917,3.0917 -0.002,0.009 2.6347,2.6439 5.7574,-5.6833 -3.4893,-0.1204 c -0.4935,-21.8082 -25.9648,-28.8008 -38.4207,-15.5271 -0.9241,0.9847 -3.5794,4.2432 -3.8229,6.1418 1.1922,0.8727 1.7441,1.9225 3.1634,2.866 0.657,-0.5741 1.0003,-1.7449 1.5064,-2.5752 1.2991,-2.1316 3.7575,-4.9057 6.2028,-6.0804 2.6358,-1.5607 5.7087,-2.4565 8.9904,-2.4565 z" style="fill:#8b8c8a;fill-rule:evenodd" id="path18"/>
  <path d="m 120.019,360.1804 c -0.0166,-0.0894 -0.0222,-0.9919 -0.007,-1.0876 0.1457,-0.919 2.4383,0.1553 2.4387,0.1556 0.4155,0.4174 0.2668,1.253 -0.5585,1.2772 -0.4692,0.0138 -1.7774,0.1704 -1.8732,-0.3452 z m 8.7667,-0.0733 c -0.2331,-0.9055 0.377,-1.0232 1.0144,-1.1685 0.6053,-0.1379 1.5189,-0.5542 1.5829,0.2177 0.0754,0.9104 0.1679,1.3683 -0.7688,1.3678 -0.6206,-4e-4 -1.6743,0.1818 -1.8285,-0.417 z m 0.432,-5.055 -4.6188,-10e-4 c -0.8431,-2e-4 -1.1505,0.3467 -1.7442,0.6713 l -3.9657,2.0446 c -0.8798,0.4243 -0.7243,0.111 -0.7249,1.8269 -9e-4,2.117 1.3782,2.4057 1.8805,2.786 0.1644,1.5283 -0.468,1.6516 1.7683,1.6516 0.9999,0 0.8256,-0.5062 0.859,-1.525 0.9641,-0.0738 5.3226,-0.0478 6.0509,-0.007 0.1383,1.5523 -0.3434,1.5285 1.8146,1.5285 1.0817,0 0.7257,-0.8006 0.8159,-1.6479 0.6557,-0.4835 1.883,-0.6563 1.8802,-2.9326 l 7e-4,-7.2582 c 0,-0.5422 -0.6707,-1.9154 -0.8626,-2.4903 -0.6946,0.1475 -0.5028,0.5916 -0.5028,1.6105 0,0.66 0.0759,1.4217 -0.1306,2.0158 -0.3502,1.0077 -1.2179,1.7271 -2.5205,1.727 z" style="fill:#565757;fill-rule:evenodd" id="path19"/>
  <path d="m 132.6202,345.4854 c 0.1102,-0.3003 0.2494,-0.1587 -0.091,-0.5628 -0.1447,-0.1719 -0.3078,-0.3468 -0.4417,-0.5845 -1.1839,0.4003 0.1973,0.9497 -2.7525,-0.0492 -0.5095,-0.1726 -3.1266,-1.2712 -2.872,-0.5586 0.0383,0.1071 0.0473,0.0985 0.1211,0.1624 l 0.8876,0.659 c 0.4266,0.3081 0.8167,0.5971 1.2255,0.9017 0.4566,0.3403 0.7365,0.5541 1.2146,0.91 0.3381,0.2516 0.8915,0.6205 1.2119,0.9136 -0.1102,0.302 -2.6971,2.4082 -3.0432,3.026 -0.4537,-0.0288 -1.6988,-0.4051 -2.2787,-0.5588 -0.4453,-0.1181 -0.4036,-0.16 -0.724,-0.01 0.0828,0.3398 0.5172,0.5496 1.0062,0.8967 0.3905,0.2771 0.7427,0.5613 1.071,0.7593 l -0.1064,0.452 0.479,0.0211 c 0.1576,0.4549 0.762,2.2204 0.957,2.4336 0.4141,-0.228 0.2727,-0.7092 0.2768,-1.3018 0.004,-0.5539 -0.0163,-1.14 0.0244,-1.6891 l 3.7311,-2.1924 c 0.2223,0.3062 1.5689,3.9473 1.9401,4.8628 0.1655,0.4083 0.1704,0.6666 0.406,0.64 0.3576,-0.0405 0.2211,-0.6573 0.2018,-1.1101 -0.0195,-0.4557 -0.0592,-0.8484 -0.0811,-1.3116 -0.0395,-0.8369 -0.1578,-1.7497 -0.1262,-2.5856 0.2052,-0.1133 0.5392,-0.3759 0.7358,-0.573 -0.0798,-0.2216 -0.2223,-0.3708 -0.3958,-0.6282 -0.3435,-0.5098 -0.2893,-0.1739 -0.5392,-0.3248 l -0.0137,-0.731 c 0.7883,-0.5066 2.7246,-1.8599 3.2258,-2.6392 0.2239,-0.3483 0.558,-1.0128 0.4179,-1.5163 -1.9211,-0.1765 -2.6039,0.6945 -4.2176,1.9617 -0.7595,0.5964 -0.4454,0.5821 -1.4505,0.3267 z" style="fill:#565757;fill-rule:evenodd" id="path20"/>
  <path d="m 118.1006,353.1755 c -0.1321,0.0889 -0.3233,0.0657 -0.4986,0.0233 l -0.0176,-1.7109 c 0.2907,-0.1037 0.332,-0.0968 0.603,-0.005 l 0.0371,1.5166 c -0.0768,0.3471 0.0108,0.1063 -0.1239,0.1756 z m -6.7876,4.1042 -0.2077,0.1816 c -0.0807,0.0884 -0.1387,0.1589 -0.2053,0.2411 -1.5029,1.8538 -0.3772,2.6673 2.4465,1.8613 4.2383,-1.2096 9.6944,-4.2795 13.5492,-6.6905 0.3184,-0.1992 0.4082,-0.17 0.4234,-0.4856 -0.3986,-0.3548 -0.7522,0.069 -0.6501,-0.8772 -0.2938,0.047 -3.1634,1.9657 -3.6336,2.2622 -1.239,0.7814 -2.4942,1.5119 -3.7303,2.2146 -1.269,0.7214 -6.9479,3.8241 -8.4811,3.2317 -0.2312,-0.6406 0.6642,-1.2489 0.6519,-1.5945 0.3451,-0.217 0.6376,-0.6442 0.9535,-0.9624 0.8625,-0.8683 1.154,-1.0605 1.9791,-1.8314 0.3216,-0.3006 0.774,-0.5067 1.0228,-0.9199 0.2079,-0.0422 0.6276,-0.4376 0.8096,-0.5517 0.1433,0.1879 0.1251,0.4212 0.3316,0.631 0.2131,0.2164 0.4897,0.2345 0.7974,0.1616 0.5804,-0.2527 -0.1979,-0.6458 0.7612,-0.6234 l 0.0388,2.5857 c 0.1907,-0.0181 2.3387,-1.1839 2.5003,-1.432 -0.2829,-0.3412 -0.7042,-0.4811 -1.0107,-1.3566 -0.1975,-0.5639 -0.1319,-1.5691 -0.1319,-2.2359 0,-1.6528 -0.2614,-3.0114 0.7209,-4.0572 0.9697,-1.0323 2.3218,-0.7977 3.9837,-0.7977 1.5323,-1e-4 3.2375,0.0704 4.7484,-0.0108 -0.0598,-0.2026 -0.3563,-0.3439 -0.6432,-0.5613 l -2.1847,-1.6116 c -0.5846,-0.226 -3.9482,0.1217 -4.6526,0.2817 -1.3845,0.3143 -2.5173,0.9746 -2.9751,2.0816 -0.6144,1.4856 -0.238,3.0597 -0.3762,4.7334 l -0.4414,0.0146 c -0.168,-0.2615 -0.0377,-0.5986 -0.3976,-0.7141 -0.3721,-0.1194 -0.698,0.0985 -0.8379,0.2894 -0.2546,0.3473 -0.1425,1.7119 -0.1536,2.2119 -0.202,0.1505 -0.9866,0.7156 -1.0308,0.8339 -0.3031,0.1385 -0.8068,0.5828 -1.1083,0.8124 -0.328,0.2497 -0.6764,0.5695 -0.9937,0.8447 -0.5048,0.4378 -1.626,1.3494 -1.8725,1.8394 z" style="fill:#565757;fill-rule:evenodd" id="path21"/>
  <path d="m 133.1849,345.0039 c 0.0973,-0.3467 -0.3127,-1.0314 -0.7841,-0.9899 0.008,0.2181 0.4987,0.881 0.7841,0.9899 z" style="fill:#565757;fill-rule:evenodd" id="path22"/>
  <path d="m 136.0497,348.7564 c 0.0321,-0.3313 -0.2518,-1.1021 -0.7771,-0.9973 0.0112,0.0952 0.4312,0.8869 0.7771,0.9973 z" style="fill:#565757;fill-rule:evenodd" id="path23"/>
  <path d="m 116.3176,352.7192 v 1.036" style="fill:#565757;fill-rule:evenodd;stroke:#1b1918;stroke-width:0.5669;stroke-linecap:butt;stroke-linejoin:miter;stroke-dasharray:none" id="path24"/>
  <path d="m 116.3176,353.492 8e-4,-0.5427 c -0.2021,0.1506 -0.9868,0.7156 -1.0309,0.8339 -0.3031,0.1385 -0.8068,0.5828 -1.1083,0.8124 -0.328,0.2496 -0.6764,0.5694 -0.9937,0.8447 -0.5049,0.4377 -1.626,1.3495 -1.8725,1.8395 l -0.2076,0.1815 c -0.0808,0.0884 -0.1387,0.159 -0.2053,0.2411 -1.503,1.8538 -0.3772,2.6672 2.4464,1.8613 4.2383,-1.2096 9.6943,-4.2795 13.5492,-6.6905 0.3184,-0.1993 0.4082,-0.1699 0.4234,-0.4856 -0.3985,-0.3547 -0.7522,0.0691 -0.6501,-0.8771 -0.2937,0.047 -3.1635,1.9656 -3.6337,2.2621 -1.2389,0.7813 -2.4942,1.5119 -3.7302,2.2146 -1.2689,0.7214 -6.9479,3.8242 -8.481,3.2317 -0.2314,-0.6406 0.6642,-1.2489 0.6517,-1.5945 0.3452,-0.217 0.6377,-0.6443 0.9536,-0.9624 0.8625,-0.8683 1.1541,-1.0605 1.979,-1.8314 0.3217,-0.3006 0.7741,-0.5068 1.0229,-0.9199 0.2079,-0.0422 0.6276,-0.4376 0.8097,-0.5517 0.0322,0.0424 0.0563,0.0869 0.0766,0.133 z" style="fill:#565757;fill-rule:evenodd" id="path25"/>
  <path d="m 190.8043,374.975 c 5.7571,1.4657 11.4813,0.4069 15.9766,-1.9338 3.296,-1.7162 8.3582,-6.1505 9.4456,-9.9394 -0.6522,-1.0707 -2.127,-2.5924 -3.1919,-3.1396 -0.8718,1.035 -1.0146,2.4794 -3.1867,4.9768 -0.7916,0.9103 -1.8326,1.9974 -3.0486,2.8521 -2.95,2.2014 -6.6046,3.5044 -10.5628,3.5044 -4.3194,0 -8.2774,-1.5517 -11.3528,-4.1292 -3.8826,-3.1854 -6.4076,-8.3208 -6.3756,-13.671 l 7e-4,-0.0539 h 0.0175 l 3.36,-0.1506 -3.0765,-3.0765 0.01,-0.048 -2.5741,-2.5687 c -0.837,0.4691 -1.0303,0.7092 -1.6201,1.3787 -0.9599,1.0894 -3.4454,3.295 -4.1326,4.3542 l 3.4704,0.0178 c 0.5028,11.4555 7.5221,19.254 16.8414,21.6267 z" style="fill:#8b8c8a;fill-rule:evenodd" id="path26"/>
  <path d="m 119.8236,374.975 c 5.757,1.4657 11.4812,0.4069 15.9766,-1.9338 3.296,-1.7162 8.3581,-6.1505 9.4455,-9.9394 -0.6521,-1.0707 -2.1269,-2.5924 -3.1918,-3.1396 -0.8719,1.035 -1.0147,2.4794 -3.1868,4.9768 -0.7916,0.9103 -1.8325,1.9974 -3.0485,2.8521 -2.9501,2.2014 -6.6047,3.5044 -10.5628,3.5044 -4.3195,0 -8.2774,-1.5517 -11.3529,-4.1292 -3.8826,-3.1854 -6.4076,-8.3208 -6.3755,-13.671 l 7e-4,-0.0539 h 0.0174 l 3.3601,-0.1506 -3.0765,-3.0765 0.009,-0.048 -2.574,-2.5687 c -0.837,0.4691 -1.0304,0.7092 -1.6201,1.3787 -0.9599,1.0894 -3.4454,3.295 -4.1327,4.3542 l 3.4704,0.0178 c 0.5029,11.4555 7.5221,19.254 16.8415,21.6267 z" style="fill:#1b1918;fill-rule:evenodd" id="path27"/>
  <path d="m 221.905,437.8724 12.8718,-51.9486 h -32.3886 l -50.4822,49.865 -26.1725,-50.405 H 80.9282 l 8.6375,15.6551 -9.6188,36.8327 h 29.0484 l 2.1631,-7.6825 3.8802,7.6825 h 69.2977 l 12.1135,-12.0009 -3.1635,12.0009 z" style="fill:#e62e14;fill-rule:evenodd" id="path28"/>
  <path d="m 361.7415,421.6745 -95.9762,89.0658 h 72.1741 l 92.52,-89.0658 -53.8028,-90.601 h -67.54 z" style="fill:#1b1918;fill-rule:evenodd" id="path29"/>
  <path d="m 415.661,373.4293 24.6783,40.6464 87.0992,-82.7451 h -69.099 z" style="fill:#8b8c8a;fill-rule:evenodd" id="path30"/>
  <path d="m 484.2622,509.9262 -44.0578,-72.3155 -37.4108,53.1164 10.6849,19.1991 z" style="fill:#8b8c8a;fill-rule:evenodd" id="path31"/>
  <path d="m 402.7936,490.7271 37.4108,-53.1164 -4.3561,-7.1503 -43.7387,41.0685 z" style="fill:#565757;fill-rule:evenodd" id="path32"/>
  <path d="m 277.8001,413.8428 6.0402,24.0296 h 31.7808 l 0.4242,-0.1149 -13.2506,-51.2937 h -56.1412 l 8.0968,15.6543 -27.9993,35.7543 h 32.141 z" style="fill:#e62e14;fill-rule:evenodd" id="path33"/>
  <path d="m 95.5033,485.7904 13.492,-47.9188 H 79.9469 L 67.433,485.7904 Z" style="fill:#a30d1f;fill-rule:evenodd" id="path34"/>
  <path d="m 115.0386,437.8716 23.1108,45.7596 46.1869,-45.7596 z" style="fill:#a30d1f;fill-rule:evenodd" id="path35"/>
  <path d="m 193.2863,437.8716 -12.4908,47.3788 h 41.5662 l 17.3799,-23.0776 51.0576,0.4057 2.2788,14.0351 26.451,-25.3718 -3.4837,-13.4828 -0.4242,0.1134 h -31.7808 l 0.8524,3.3927 h -28.4706 l 2.6699,-3.3927 h -32.141 l -7.0885,9.051 2.2425,-9.051 z" style="fill:#a30d1f;fill-rule:evenodd" id="path36"/>
</svg>